<svg xmlns="http://www.w3.org/2000/svg" xmlns:xlink="http://www.w3.org/1999/xlink" contentStyleType="text/css" data-diagram-type="SEQUENCE" height="605px" preserveAspectRatio="none" style="width:895px;height:605px;background:#FFFFFF;" version="1.1" viewBox="0 0 895 605" width="895px" zoomAndPan="magnify"><defs/><g><g><title>... ...</title><rect fill="#000000" fill-opacity="0.00000" height="443.0371" width="8" x="42.5448" y="81.4883"/><line style="stroke:#181818;stroke-width:0.5;stroke-dasharray:5,5;" x1="46" x2="46" y1="81.4883" y2="524.5254"/></g><g><title>load_audio..</title><rect fill="#000000" fill-opacity="0.00000" height="443.0371" width="8" x="142.6761" y="81.4883"/><line style="stroke:#181818;stroke-width:0.5;stroke-dasharray:5,5;" x1="146.0897" x2="146.0897" y1="81.4883" y2="524.5254"/></g><g><title>estimate_pitch_spice_only..</title><rect fill="#000000" fill-opacity="0.00000" height="443.0371" width="8" x="301.1287" y="81.4883"/><line style="stroke:#181818;stroke-width:0.5;stroke-dasharray:5,5;" x1="304.2625" x2="304.2625" y1="81.4883" y2="524.5254"/></g><g><title>filter_pitch..</title><rect fill="#000000" fill-opacity="0.00000" height="443.0371" width="8" x="459.0277" y="81.4883"/><line style="stroke:#181818;stroke-width:0.5;stroke-dasharray:5,5;" x1="462.995" x2="462.995" y1="81.4883" y2="524.5254"/></g><g><title>custom_moving_std..</title><rect fill="#000000" fill-opacity="0.00000" height="443.0371" width="8" x="596.347" y="81.4883"/><line style="stroke:#181818;stroke-width:0.5;stroke-dasharray:5,5;" x1="600.0604" x2="600.0604" y1="81.4883" y2="524.5254"/></g><g><title>analyze_pitch_stability..</title><rect fill="#000000" fill-opacity="0.00000" height="443.0371" width="8" x="791.3529" y="81.4883"/><line style="stroke:#181818;stroke-width:0.5;stroke-dasharray:5,5;" x1="795.3504" x2="795.3504" y1="81.4883" y2="524.5254"/></g><g class="participant participant-head" data-participant="loader"><text fill="#000000" font-family="sans-serif" font-size="14" lengthAdjust="spacing" textLength="77.0897" x="5" y="78.5352">&#49324;&#50857;&#51088; &#51060;&#48292;&#53944;</text><ellipse cx="46.5448" cy="13.5" fill="#E2E2F0" rx="8" ry="8" style="stroke:#181818;stroke-width:0.5;"/><path d="M46.5448,21.5 L46.5448,48.5 M33.5448,29.5 L59.5448,29.5 M46.5448,48.5 L33.5448,63.5 M46.5448,48.5 L59.5448,63.5" fill="none" style="stroke:#181818;stroke-width:0.5;"/></g><g class="participant participant-tail" data-participant="loader"><text fill="#000000" font-family="sans-serif" font-size="14" lengthAdjust="spacing" textLength="77.0897" x="5" y="537.0605">&#49324;&#50857;&#51088; &#51060;&#48292;&#53944;</text><ellipse cx="46.5448" cy="548.5137" fill="#E2E2F0" rx="8" ry="8" style="stroke:#181818;stroke-width:0.5;"/><path d="M46.5448,556.5137 L46.5448,583.5137 M33.5448,564.5137 L59.5448,564.5137 M46.5448,583.5137 L33.5448,598.5137 M46.5448,583.5137 L59.5448,598.5137" fill="none" style="stroke:#181818;stroke-width:0.5;"/></g><g class="participant participant-head" data-participant="prep"><rect fill="#E2E2F0" height="30.4883" rx="2.5" ry="2.5" style="stroke:#181818;stroke-width:0.5;" width="97.1729" x="98.0897" y="50"/><text fill="#000000" font-family="sans-serif" font-size="14" lengthAdjust="spacing" textLength="83.1729" x="105.0897" y="70.5352">load_audio()</text></g><g class="participant participant-tail" data-participant="prep"><rect fill="#E2E2F0" height="30.4883" rx="2.5" ry="2.5" style="stroke:#181818;stroke-width:0.5;" width="97.1729" x="98.0897" y="523.5254"/><text fill="#000000" font-family="sans-serif" font-size="14" lengthAdjust="spacing" textLength="83.1729" x="105.0897" y="544.0605">load_audio()</text></g><g class="participant participant-head" data-participant="model"><rect fill="#E2E2F0" height="30.4883" rx="2.5" ry="2.5" style="stroke:#181818;stroke-width:0.5;" width="199.7324" x="205.2625" y="50"/><text fill="#000000" font-family="sans-serif" font-size="14" lengthAdjust="spacing" textLength="185.7324" x="212.2625" y="70.5352">estimate_pitch_spice_only()</text></g><g class="participant participant-tail" data-participant="model"><rect fill="#E2E2F0" height="30.4883" rx="2.5" ry="2.5" style="stroke:#181818;stroke-width:0.5;" width="199.7324" x="205.2625" y="523.5254"/><text fill="#000000" font-family="sans-serif" font-size="14" lengthAdjust="spacing" textLength="185.7324" x="212.2625" y="544.0605">estimate_pitch_spice_only()</text></g><g class="participant participant-head" data-participant="filter"><rect fill="#E2E2F0" height="30.4883" rx="2.5" ry="2.5" style="stroke:#181818;stroke-width:0.5;" width="96.0654" x="414.995" y="50"/><text fill="#000000" font-family="sans-serif" font-size="14" lengthAdjust="spacing" textLength="82.0654" x="421.995" y="70.5352">filter_pitch()</text></g><g class="participant participant-tail" data-participant="filter"><rect fill="#E2E2F0" height="30.4883" rx="2.5" ry="2.5" style="stroke:#181818;stroke-width:0.5;" width="96.0654" x="414.995" y="523.5254"/><text fill="#000000" font-family="sans-serif" font-size="14" lengthAdjust="spacing" textLength="82.0654" x="421.995" y="544.0605">filter_pitch()</text></g><g class="participant participant-head" data-participant="customized_std"><rect fill="#E2E2F0" height="30.4883" rx="2.5" ry="2.5" style="stroke:#181818;stroke-width:0.5;" width="158.5732" x="521.0604" y="50"/><text fill="#000000" font-family="sans-serif" font-size="14" lengthAdjust="spacing" textLength="144.5732" x="528.0604" y="70.5352">custom_moving_std()</text></g><g class="participant participant-tail" data-participant="customized_std"><rect fill="#E2E2F0" height="30.4883" rx="2.5" ry="2.5" style="stroke:#181818;stroke-width:0.5;" width="158.5732" x="521.0604" y="523.5254"/><text fill="#000000" font-family="sans-serif" font-size="14" lengthAdjust="spacing" textLength="144.5732" x="528.0604" y="544.0605">custom_moving_std()</text></g><g class="participant participant-head" data-participant="anal"><rect fill="#E2E2F0" height="30.4883" rx="2.5" ry="2.5" style="stroke:#181818;stroke-width:0.5;" width="176.0049" x="707.3504" y="50"/><text fill="#000000" font-family="sans-serif" font-size="14" lengthAdjust="spacing" textLength="162.0049" x="714.3504" y="70.5352">analyze_pitch_stability()</text></g><g class="participant participant-tail" data-participant="anal"><rect fill="#E2E2F0" height="30.4883" rx="2.5" ry="2.5" style="stroke:#181818;stroke-width:0.5;" width="176.0049" x="707.3504" y="523.5254"/><text fill="#000000" font-family="sans-serif" font-size="14" lengthAdjust="spacing" textLength="162.0049" x="714.3504" y="544.0605">analyze_pitch_stability()</text></g><rect fill="#EEEEEE" height="3" style="stroke:#EEEEEE;stroke-width:1;" width="888.3553" x="0" y="112.1436"/><line style="stroke:#000000;stroke-width:1;" x1="0" x2="888.3553" y1="112.1436" y2="112.1436"/><line style="stroke:#000000;stroke-width:1;" x1="0" x2="888.3553" y1="115.1436" y2="115.1436"/><rect fill="#EEEEEE" height="23.3105" style="stroke:#000000;stroke-width:2;" width="78.7943" x="404.7805" y="101.4883"/><text fill="#000000" font-family="sans-serif" font-size="13" font-weight="bold" lengthAdjust="spacing" textLength="60.5097" x="410.7805" y="118.0566">&#51204;&#52376;&#47532; &#47784;&#46280;</text><g class="message" data-participant-1="loader" data-participant-2="anal"><polygon fill="#181818" points="783.3529,152.1094,793.3529,156.1094,783.3529,160.1094,787.3529,156.1094" style="stroke:#181818;stroke-width:1;"/><line style="stroke:#181818;stroke-width:1;" x1="46.5448" x2="789.3529" y1="156.1094" y2="156.1094"/><text fill="#000000" font-family="sans-serif" font-size="13" lengthAdjust="spacing" textLength="132.2852" x="53.5448" y="151.3672">filepath, sample_rate</text></g><g class="message" data-participant-1="anal" data-participant-2="prep"><polygon fill="#181818" points="157.6761,181.4199,147.6761,185.4199,157.6761,189.4199,153.6761,185.4199" style="stroke:#181818;stroke-width:1;"/><line style="stroke:#181818;stroke-width:1;" x1="151.6761" x2="794.3529" y1="185.4199" y2="185.4199"/><text fill="#000000" font-family="sans-serif" font-size="13" lengthAdjust="spacing" textLength="132.2852" x="163.6761" y="180.6777">filepath, sample_rate</text></g><g class="message" data-participant-1="prep" data-participant-2="anal"><polygon fill="#181818" points="783.3529,210.7305,793.3529,214.7305,783.3529,218.7305,787.3529,214.7305" style="stroke:#181818;stroke-width:1;"/><line style="stroke:#181818;stroke-width:1;" x1="146.6761" x2="789.3529" y1="214.7305" y2="214.7305"/><text fill="#000000" font-family="sans-serif" font-size="13" lengthAdjust="spacing" textLength="55.3452" x="153.6761" y="209.9883">audio, sr</text></g><rect fill="#EEEEEE" height="3" style="stroke:#EEEEEE;stroke-width:1;" width="888.3553" x="0" y="243.3857"/><line style="stroke:#000000;stroke-width:1;" x1="0" x2="888.3553" y1="243.3857" y2="243.3857"/><line style="stroke:#000000;stroke-width:1;" x1="0" x2="888.3553" y1="246.3857" y2="246.3857"/><rect fill="#EEEEEE" height="23.3105" style="stroke:#000000;stroke-width:2;" width="94.324" x="397.0157" y="232.7305"/><text fill="#000000" font-family="sans-serif" font-size="13" font-weight="bold" lengthAdjust="spacing" textLength="76.0393" x="403.0157" y="249.2988">&#53945;&#51669; &#52628;&#52636; &#47784;&#46280;</text><g class="message" data-participant-1="anal" data-participant-2="model"><polygon fill="#181818" points="316.1287,283.3516,306.1287,287.3516,316.1287,291.3516,312.1287,287.3516" style="stroke:#181818;stroke-width:1;"/><line style="stroke:#181818;stroke-width:1;" x1="310.1287" x2="794.3529" y1="287.3516" y2="287.3516"/><text fill="#000000" font-family="sans-serif" font-size="13" lengthAdjust="spacing" textLength="55.3452" x="322.1287" y="282.6094">audio, sr</text></g><g class="message" data-participant-1="model" data-participant-2="anal"><polygon fill="#181818" points="783.3529,312.6621,793.3529,316.6621,783.3529,320.6621,787.3529,316.6621" style="stroke:#181818;stroke-width:1;"/><line style="stroke:#181818;stroke-width:1;" x1="305.1287" x2="789.3529" y1="316.6621" y2="316.6621"/><text fill="#000000" font-family="sans-serif" font-size="13" lengthAdjust="spacing" textLength="31.5288" x="312.1287" y="311.9199">pitch</text></g><rect fill="#EEEEEE" height="3" style="stroke:#EEEEEE;stroke-width:1;" width="888.3553" x="0" y="345.3174"/><line style="stroke:#000000;stroke-width:1;" x1="0" x2="888.3553" y1="345.3174" y2="345.3174"/><line style="stroke:#000000;stroke-width:1;" x1="0" x2="888.3553" y1="348.3174" y2="348.3174"/><rect fill="#EEEEEE" height="23.3105" style="stroke:#000000;stroke-width:2;" width="78.7943" x="404.7805" y="334.6621"/><text fill="#000000" font-family="sans-serif" font-size="13" font-weight="bold" lengthAdjust="spacing" textLength="60.5097" x="410.7805" y="351.2305">&#54980;&#52376;&#47532; &#47784;&#46280;</text><g class="message" data-participant-1="anal" data-participant-2="filter"><polygon fill="#181818" points="474.0277,385.2832,464.0277,389.2832,474.0277,393.2832,470.0277,389.2832" style="stroke:#181818;stroke-width:1;"/><line style="stroke:#181818;stroke-width:1;" x1="468.0277" x2="794.3529" y1="389.2832" y2="389.2832"/><text fill="#000000" font-family="sans-serif" font-size="13" lengthAdjust="spacing" textLength="176.7378" x="480.0277" y="384.541">pitch, confidence, threshold</text></g><g class="message" data-participant-1="filter" data-participant-2="anal"><polygon fill="#181818" points="783.3529,414.5938,793.3529,418.5938,783.3529,422.5938,787.3529,418.5938" style="stroke:#181818;stroke-width:1;"/><line style="stroke:#181818;stroke-width:1;" x1="463.0277" x2="789.3529" y1="418.5938" y2="418.5938"/><text fill="#000000" font-family="sans-serif" font-size="13" lengthAdjust="spacing" textLength="83.1733" x="470.0277" y="413.8516">filtered_pitch</text></g><g class="message" data-participant-1="anal" data-participant-2="customized_std"><polygon fill="#181818" points="611.347,443.9043,601.347,447.9043,611.347,451.9043,607.347,447.9043" style="stroke:#181818;stroke-width:1;"/><line style="stroke:#181818;stroke-width:1;" x1="605.347" x2="794.3529" y1="447.9043" y2="447.9043"/><text fill="#000000" font-family="sans-serif" font-size="13" lengthAdjust="spacing" textLength="171.0059" x="617.347" y="443.1621">filtered_pitch, window_size</text></g><g class="message" data-participant-1="customized_std" data-participant-2="anal"><polygon fill="#181818" points="783.3529,473.2148,793.3529,477.2148,783.3529,481.2148,787.3529,477.2148" style="stroke:#181818;stroke-width:1;"/><line style="stroke:#181818;stroke-width:1;" x1="600.347" x2="789.3529" y1="477.2148" y2="477.2148"/><text fill="#000000" font-family="sans-serif" font-size="13" lengthAdjust="spacing" textLength="57.7002" x="607.347" y="472.4727">pitch_std</text></g><g class="message" data-participant-1="anal" data-participant-2="loader"><polygon fill="#181818" points="57.5448,502.5254,47.5448,506.5254,57.5448,510.5254,53.5448,506.5254" style="stroke:#181818;stroke-width:1;"/><line style="stroke:#181818;stroke-width:1;" x1="51.5448" x2="794.3529" y1="506.5254" y2="506.5254"/><text fill="#000000" font-family="sans-serif" font-size="13" lengthAdjust="spacing" textLength="96.0972" x="63.5448" y="501.7832">mono_duration</text></g><!--SRC=[TP7BIWCn58RtUOhGbSBu0eNnLK9CKYUGIKAIMjgbk92k11N46ox46rqLAVfCaxw3kSpOJj5bpld-_vpp1nEd31puquM_VVUF5z0_V3RBv_NyQm2nXK9XoWpGs3XEkCRImK6i8JocNEtj9qWRfli8iuxNs36akICLifeJXfGKqrPHAyf4NpBYmZ6J1IsLItsCZArJDQhL2PV7o3hQihdEPup6Ob-39HRJsUyo3XznmLstI-m2K9RGFvtvvKtpie3DnrjpUGxB4e0S03muJDmmxiGqTbK1BQwrOCY4Cq7iHIOcyHyJUnkVb5y0J1gzdd_xrsleLrT-TRyzlZDEWMshKc5ZbqxBLdT_ND7Pv4HRl814oH6dJ19MG5SPPYibACXGx-Jm3i7c8PrNF_5Th80JBgcQ81i8q6TtrauVrhdcl8VXOAaG7OVak9BW1m00]--></g></svg>