<svg xmlns="http://www.w3.org/2000/svg" xmlns:xlink="http://www.w3.org/1999/xlink" contentStyleType="text/css" data-diagram-type="SEQUENCE" height="1253px" preserveAspectRatio="none" style="width:1759px;height:1253px;background:#FFFFFF;" version="1.1" viewBox="0 0 1759 1253" width="1759px" zoomAndPan="magnify"><title>&#54140;&#53552;&#52964; &#48152;&#48373;&#54616;&#44592;</title><defs/><g><text fill="#000000" font-family="sans-serif" font-size="14" font-weight="bold" lengthAdjust="spacing" textLength="89.3843" x="831.1228" y="28.5352">&#54140;&#53552;&#52964; &#48152;&#48373;&#54616;&#44592;</text><g><title>main</title><rect fill="#000000" fill-opacity="0.00000" height="1143.8691" width="8" x="24.7686" y="73.9766"/><line style="stroke:#181818;stroke-width:0.5;stroke-dasharray:5,5;" x1="28" x2="28" y1="73.9766" y2="1217.8457"/></g><g><title>audio_preprocess..</title><rect fill="#000000" fill-opacity="0.00000" height="1143.8691" width="8" x="129.8906" y="73.9766"/><line style="stroke:#181818;stroke-width:0.5;stroke-dasharray:5,5;" x1="133.5371" x2="133.5371" y1="73.9766" y2="1217.8457"/></g><g><title>wav_padding..</title><rect fill="#000000" fill-opacity="0.00000" height="1143.8691" width="8" x="266.9946" y="73.9766"/><line style="stroke:#181818;stroke-width:0.5;stroke-dasharray:5,5;" x1="270.2441" x2="270.2441" y1="73.9766" y2="1217.8457"/></g><g><title>x_data_preprocess..</title><rect fill="#000000" fill-opacity="0.00000" height="1143.8691" width="8" x="432.4648" y="73.9766"/><line style="stroke:#181818;stroke-width:0.5;stroke-dasharray:5,5;" x1="435.502" x2="435.502" y1="73.9766" y2="1217.8457"/></g><g><title>build_ptk_model..</title><rect fill="#000000" fill-opacity="0.00000" height="1143.8691" width="8" x="585.4624" y="73.9766"/><line style="stroke:#181818;stroke-width:0.5;stroke-dasharray:5,5;" x1="589.4277" x2="589.4277" y1="73.9766" y2="1217.8457"/></g><g><title>model.fit..</title><rect fill="#000000" fill-opacity="0.00000" height="1143.8691" width="8" x="705.644" y="73.9766"/><line style="stroke:#181818;stroke-width:0.5;stroke-dasharray:5,5;" x1="709.4971" x2="709.4971" y1="73.9766" y2="1217.8457"/></g><g><title>pred_preprocess..</title><rect fill="#000000" fill-opacity="0.00000" height="1143.8691" width="8" x="825.7813" y="73.9766"/><line style="stroke:#181818;stroke-width:0.5;stroke-dasharray:5,5;" x1="828.791" x2="828.791" y1="73.9766" y2="1217.8457"/></g><g><title>load_model..</title><rect fill="#000000" fill-opacity="0.00000" height="1143.8691" width="8" x="954.583" y="73.9766"/><line style="stroke:#181818;stroke-width:0.5;stroke-dasharray:5,5;" x1="957.7715" x2="957.7715" y1="73.9766" y2="1217.8457"/></g><g><title>ptk_each..</title><rect fill="#000000" fill-opacity="0.00000" height="1143.8691" width="8" x="1057.2578" y="73.9766"/><line style="stroke:#181818;stroke-width:0.5;stroke-dasharray:5,5;" x1="1060.3945" x2="1060.3945" y1="73.9766" y2="1217.8457"/></g><g><title>ptk_whole..</title><rect fill="#000000" fill-opacity="0.00000" height="1143.8691" width="8" x="1155.25" y="73.9766"/><line style="stroke:#181818;stroke-width:0.5;stroke-dasharray:5,5;" x1="1159.1211" x2="1159.1211" y1="73.9766" y2="1217.8457"/></g><g><title>model_whole.predict..</title><rect fill="#000000" fill-opacity="0.00000" height="1143.8691" width="8" x="1293.5742" y="73.9766"/><line style="stroke:#181818;stroke-width:0.5;stroke-dasharray:5,5;" x1="1297.3789" x2="1297.3789" y1="73.9766" y2="1217.8457"/></g><g><title>model_each.predict..</title><rect fill="#000000" fill-opacity="0.00000" height="1143.8691" width="8" x="1463.6992" y="73.9766"/><line style="stroke:#181818;stroke-width:0.5;stroke-dasharray:5,5;" x1="1466.7695" x2="1466.7695" y1="73.9766" y2="1217.8457"/></g><g><title>model_comm.get_file_lst..</title><rect fill="#000000" fill-opacity="0.00000" height="1143.8691" width="8" x="1647.6294" y="73.9766"/><line style="stroke:#181818;stroke-width:0.5;stroke-dasharray:5,5;" x1="1651.6289" x2="1651.6289" y1="73.9766" y2="1217.8457"/></g><g class="participant participant-head" data-participant="loader"><rect fill="#E2E2F0" height="30.4883" rx="2.5" ry="2.5" style="stroke:#181818;stroke-width:0.5;" width="47.5371" x="5" y="42.4883"/><text fill="#000000" font-family="sans-serif" font-size="14" lengthAdjust="spacing" textLength="33.5371" x="12" y="63.0234">main</text></g><g class="participant participant-tail" data-participant="loader"><rect fill="#E2E2F0" height="30.4883" rx="2.5" ry="2.5" style="stroke:#181818;stroke-width:0.5;" width="47.5371" x="5" y="1216.8457"/><text fill="#000000" font-family="sans-serif" font-size="14" lengthAdjust="spacing" textLength="33.5371" x="12" y="1237.3809">main</text></g><g class="participant participant-head" data-participant="audio_file_transformation"><rect fill="#E2E2F0" height="30.4883" rx="2.5" ry="2.5" style="stroke:#181818;stroke-width:0.5;" width="142.707" x="62.5371" y="42.4883"/><text fill="#000000" font-family="sans-serif" font-size="14" lengthAdjust="spacing" textLength="128.707" x="69.5371" y="63.0234">audio_preprocess()</text></g><g class="participant participant-tail" data-participant="audio_file_transformation"><rect fill="#E2E2F0" height="30.4883" rx="2.5" ry="2.5" style="stroke:#181818;stroke-width:0.5;" width="142.707" x="62.5371" y="1216.8457"/><text fill="#000000" font-family="sans-serif" font-size="14" lengthAdjust="spacing" textLength="128.707" x="69.5371" y="1237.3809">audio_preprocess()</text></g><g class="participant participant-head" data-participant="padding"><rect fill="#E2E2F0" height="30.4883" rx="2.5" ry="2.5" style="stroke:#181818;stroke-width:0.5;" width="111.501" x="215.2441" y="42.4883"/><text fill="#000000" font-family="sans-serif" font-size="14" lengthAdjust="spacing" textLength="97.501" x="222.2441" y="63.0234">wav_padding()</text></g><g class="participant participant-tail" data-participant="padding"><rect fill="#E2E2F0" height="30.4883" rx="2.5" ry="2.5" style="stroke:#181818;stroke-width:0.5;" width="111.501" x="215.2441" y="1216.8457"/><text fill="#000000" font-family="sans-serif" font-size="14" lengthAdjust="spacing" textLength="97.501" x="222.2441" y="1237.3809">wav_padding()</text></g><g class="participant participant-head" data-participant="preprocess"><rect fill="#E2E2F0" height="30.4883" rx="2.5" ry="2.5" style="stroke:#181818;stroke-width:0.5;" width="149.9258" x="361.502" y="42.4883"/><text fill="#000000" font-family="sans-serif" font-size="14" lengthAdjust="spacing" textLength="135.9258" x="368.502" y="63.0234">x_data_preprocess()</text></g><g class="participant participant-tail" data-participant="preprocess"><rect fill="#E2E2F0" height="30.4883" rx="2.5" ry="2.5" style="stroke:#181818;stroke-width:0.5;" width="149.9258" x="361.502" y="1216.8457"/><text fill="#000000" font-family="sans-serif" font-size="14" lengthAdjust="spacing" textLength="135.9258" x="368.502" y="1237.3809">x_data_preprocess()</text></g><g class="participant participant-head" data-participant="model_builder"><rect fill="#E2E2F0" height="30.4883" rx="2.5" ry="2.5" style="stroke:#181818;stroke-width:0.5;" width="136.0693" x="521.4277" y="42.4883"/><text fill="#000000" font-family="sans-serif" font-size="14" lengthAdjust="spacing" textLength="122.0693" x="528.4277" y="63.0234">build_ptk_model()</text></g><g class="participant participant-tail" data-participant="model_builder"><rect fill="#E2E2F0" height="30.4883" rx="2.5" ry="2.5" style="stroke:#181818;stroke-width:0.5;" width="136.0693" x="521.4277" y="1216.8457"/><text fill="#000000" font-family="sans-serif" font-size="14" lengthAdjust="spacing" textLength="122.0693" x="528.4277" y="1237.3809">build_ptk_model()</text></g><g class="participant participant-head" data-participant="model_fit"><rect fill="#E2E2F0" height="30.4883" rx="2.5" ry="2.5" style="stroke:#181818;stroke-width:0.5;" width="84.2939" x="667.4971" y="42.4883"/><text fill="#000000" font-family="sans-serif" font-size="14" lengthAdjust="spacing" textLength="70.2939" x="674.4971" y="63.0234">model.fit()</text></g><g class="participant participant-tail" data-participant="model_fit"><rect fill="#E2E2F0" height="30.4883" rx="2.5" ry="2.5" style="stroke:#181818;stroke-width:0.5;" width="84.2939" x="667.4971" y="1216.8457"/><text fill="#000000" font-family="sans-serif" font-size="14" lengthAdjust="spacing" textLength="70.2939" x="674.4971" y="1237.3809">model.fit()</text></g><g class="participant participant-head" data-participant="pred_preprocess"><rect fill="#E2E2F0" height="30.4883" rx="2.5" ry="2.5" style="stroke:#181818;stroke-width:0.5;" width="135.9805" x="761.791" y="42.4883"/><text fill="#000000" font-family="sans-serif" font-size="14" lengthAdjust="spacing" textLength="121.9805" x="768.791" y="63.0234">pred_preprocess()</text></g><g class="participant participant-tail" data-participant="pred_preprocess"><rect fill="#E2E2F0" height="30.4883" rx="2.5" ry="2.5" style="stroke:#181818;stroke-width:0.5;" width="135.9805" x="761.791" y="1216.8457"/><text fill="#000000" font-family="sans-serif" font-size="14" lengthAdjust="spacing" textLength="121.9805" x="768.791" y="1237.3809">pred_preprocess()</text></g><g class="participant participant-head" data-participant="model_pred"><rect fill="#E2E2F0" height="30.4883" rx="2.5" ry="2.5" style="stroke:#181818;stroke-width:0.5;" width="101.623" x="907.7715" y="42.4883"/><text fill="#000000" font-family="sans-serif" font-size="14" lengthAdjust="spacing" textLength="87.623" x="914.7715" y="63.0234">load_model()</text></g><g class="participant participant-tail" data-participant="model_pred"><rect fill="#E2E2F0" height="30.4883" rx="2.5" ry="2.5" style="stroke:#181818;stroke-width:0.5;" width="101.623" x="907.7715" y="1216.8457"/><text fill="#000000" font-family="sans-serif" font-size="14" lengthAdjust="spacing" textLength="87.623" x="914.7715" y="1237.3809">load_model()</text></g><g class="participant participant-head" data-participant="ptk_each_pred"><rect fill="#E2E2F0" height="30.4883" rx="2.5" ry="2.5" style="stroke:#181818;stroke-width:0.5;" width="83.7266" x="1019.3945" y="42.4883"/><text fill="#000000" font-family="sans-serif" font-size="14" lengthAdjust="spacing" textLength="69.7266" x="1026.3945" y="63.0234">ptk_each()</text></g><g class="participant participant-tail" data-participant="ptk_each_pred"><rect fill="#E2E2F0" height="30.4883" rx="2.5" ry="2.5" style="stroke:#181818;stroke-width:0.5;" width="83.7266" x="1019.3945" y="1216.8457"/><text fill="#000000" font-family="sans-serif" font-size="14" lengthAdjust="spacing" textLength="69.7266" x="1026.3945" y="1237.3809">ptk_each()</text></g><g class="participant participant-head" data-participant="ptk_whole_pred"><rect fill="#E2E2F0" height="30.4883" rx="2.5" ry="2.5" style="stroke:#181818;stroke-width:0.5;" width="92.2578" x="1113.1211" y="42.4883"/><text fill="#000000" font-family="sans-serif" font-size="14" lengthAdjust="spacing" textLength="78.2578" x="1120.1211" y="63.0234">ptk_whole()</text></g><g class="participant participant-tail" data-participant="ptk_whole_pred"><rect fill="#E2E2F0" height="30.4883" rx="2.5" ry="2.5" style="stroke:#181818;stroke-width:0.5;" width="92.2578" x="1113.1211" y="1216.8457"/><text fill="#000000" font-family="sans-serif" font-size="14" lengthAdjust="spacing" textLength="78.2578" x="1120.1211" y="1237.3809">ptk_whole()</text></g><g class="participant participant-head" data-participant="model_whole"><rect fill="#E2E2F0" height="30.4883" rx="2.5" ry="2.5" style="stroke:#181818;stroke-width:0.5;" width="164.3906" x="1215.3789" y="42.4883"/><text fill="#000000" font-family="sans-serif" font-size="14" lengthAdjust="spacing" textLength="150.3906" x="1222.3789" y="63.0234">model_whole.predict()</text></g><g class="participant participant-tail" data-participant="model_whole"><rect fill="#E2E2F0" height="30.4883" rx="2.5" ry="2.5" style="stroke:#181818;stroke-width:0.5;" width="164.3906" x="1215.3789" y="1216.8457"/><text fill="#000000" font-family="sans-serif" font-size="14" lengthAdjust="spacing" textLength="150.3906" x="1222.3789" y="1237.3809">model_whole.predict()</text></g><g class="participant participant-head" data-participant="model_each"><rect fill="#E2E2F0" height="30.4883" rx="2.5" ry="2.5" style="stroke:#181818;stroke-width:0.5;" width="155.8594" x="1389.7695" y="42.4883"/><text fill="#000000" font-family="sans-serif" font-size="14" lengthAdjust="spacing" textLength="141.8594" x="1396.7695" y="63.0234">model_each.predict()</text></g><g class="participant participant-tail" data-participant="model_each"><rect fill="#E2E2F0" height="30.4883" rx="2.5" ry="2.5" style="stroke:#181818;stroke-width:0.5;" width="155.8594" x="1389.7695" y="1216.8457"/><text fill="#000000" font-family="sans-serif" font-size="14" lengthAdjust="spacing" textLength="141.8594" x="1396.7695" y="1237.3809">model_each.predict()</text></g><g class="participant participant-head" data-participant="model_comm"><rect fill="#E2E2F0" height="30.4883" rx="2.5" ry="2.5" style="stroke:#181818;stroke-width:0.5;" width="192.001" x="1555.6289" y="42.4883"/><text fill="#000000" font-family="sans-serif" font-size="14" lengthAdjust="spacing" textLength="178.001" x="1562.6289" y="63.0234">model_comm.get_file_lst()</text></g><g class="participant participant-tail" data-participant="model_comm"><rect fill="#E2E2F0" height="30.4883" rx="2.5" ry="2.5" style="stroke:#181818;stroke-width:0.5;" width="192.001" x="1555.6289" y="1216.8457"/><text fill="#000000" font-family="sans-serif" font-size="14" lengthAdjust="spacing" textLength="178.001" x="1562.6289" y="1237.3809">model_comm.get_file_lst()</text></g><rect fill="#EEEEEE" height="3" style="stroke:#EEEEEE;stroke-width:1;" width="1752.6299" x="0" y="104.6318"/><line style="stroke:#000000;stroke-width:1;" x1="0" x2="1752.6299" y1="104.6318" y2="104.6318"/><line style="stroke:#000000;stroke-width:1;" x1="0" x2="1752.6299" y1="107.6318" y2="107.6318"/><rect fill="#EEEEEE" height="23.3105" style="stroke:#000000;stroke-width:2;" width="78.7943" x="836.9178" y="93.9766"/><text fill="#000000" font-family="sans-serif" font-size="13" font-weight="bold" lengthAdjust="spacing" textLength="60.5097" x="842.9178" y="110.5449">&#45936;&#51060;&#53552; &#51456;&#48708;</text><g class="message" data-participant-1="loader" data-participant-2="model_comm"><polygon fill="#181818" points="1639.6294,144.5977,1649.6294,148.5977,1639.6294,152.5977,1643.6294,148.5977" style="stroke:#181818;stroke-width:1;"/><line style="stroke:#181818;stroke-width:1;" x1="28.7686" x2="1645.6294" y1="148.5977" y2="148.5977"/><text fill="#000000" font-family="sans-serif" font-size="13" lengthAdjust="spacing" textLength="321.4897" x="35.7686" y="143.8555">assess_type, question_cd, question_no, order_num</text></g><g class="message" data-participant-1="model_comm" data-participant-2="loader"><polygon fill="#181818" points="39.7686,173.9082,29.7686,177.9082,39.7686,181.9082,35.7686,177.9082" style="stroke:#181818;stroke-width:1;"/><line style="stroke:#181818;stroke-width:1;" x1="33.7686" x2="1650.6294" y1="177.9082" y2="177.9082"/><text fill="#000000" font-family="sans-serif" font-size="13" lengthAdjust="spacing" textLength="169.0889" x="45.7686" y="173.166">wav_label_pairs[path,label]</text></g><rect fill="#EEEEEE" height="3" style="stroke:#EEEEEE;stroke-width:1;" width="1752.6299" x="0" y="206.5635"/><line style="stroke:#000000;stroke-width:1;" x1="0" x2="1752.6299" y1="206.5635" y2="206.5635"/><line style="stroke:#000000;stroke-width:1;" x1="0" x2="1752.6299" y1="209.5635" y2="209.5635"/><rect fill="#EEEEEE" height="23.3105" style="stroke:#000000;stroke-width:2;" width="78.7943" x="836.9178" y="195.9082"/><text fill="#000000" font-family="sans-serif" font-size="13" font-weight="bold" lengthAdjust="spacing" textLength="60.5097" x="842.9178" y="212.4766">&#51204;&#52376;&#47532; &#44284;&#51221;</text><g class="message" data-participant-1="loader" data-participant-2="preprocess"><polygon fill="#181818" points="424.4648,246.5293,434.4648,250.5293,424.4648,254.5293,428.4648,250.5293" style="stroke:#181818;stroke-width:1;"/><line style="stroke:#181818;stroke-width:1;" x1="28.7686" x2="430.4648" y1="250.5293" y2="250.5293"/><text fill="#000000" font-family="sans-serif" font-size="13" lengthAdjust="spacing" textLength="122.6938" x="35.7686" y="245.7871">wav_file, sr, n_mels</text></g><g class="message" data-participant-1="preprocess" data-participant-2="audio_file_transformation"><polygon fill="#181818" points="144.8906,275.8398,134.8906,279.8398,144.8906,283.8398,140.8906,279.8398" style="stroke:#181818;stroke-width:1;"/><line style="stroke:#181818;stroke-width:1;" x1="138.8906" x2="435.4648" y1="279.8398" y2="279.8398"/><text fill="#000000" font-family="sans-serif" font-size="13" lengthAdjust="spacing" textLength="28.2915" x="150.8906" y="275.0977">path</text></g><g class="message" data-participant-1="audio_file_transformation" data-participant-2="preprocess"><polygon fill="#181818" points="424.4648,305.1504,434.4648,309.1504,424.4648,313.1504,428.4648,309.1504" style="stroke:#181818;stroke-width:1;"/><line style="stroke:#181818;stroke-width:1;" x1="133.8906" x2="430.4648" y1="309.1504" y2="309.1504"/><text fill="#000000" font-family="sans-serif" font-size="13" lengthAdjust="spacing" textLength="222.6123" x="140.8906" y="304.4082">mel_db1, round(duration,3), length</text></g><g class="message" data-participant-1="preprocess" data-participant-2="padding"><polygon fill="#181818" points="281.9946,334.4609,271.9946,338.4609,281.9946,342.4609,277.9946,338.4609" style="stroke:#181818;stroke-width:1;"/><line style="stroke:#181818;stroke-width:1;" x1="275.9946" x2="435.4648" y1="338.4609" y2="338.4609"/><text fill="#000000" font-family="sans-serif" font-size="13" lengthAdjust="spacing" textLength="141.4702" x="287.9946" y="333.7188">wav_file, wav_max_len</text></g><g class="message" data-participant-1="padding" data-participant-2="preprocess"><polygon fill="#181818" points="424.4648,363.7715,434.4648,367.7715,424.4648,371.7715,428.4648,367.7715" style="stroke:#181818;stroke-width:1;"/><line style="stroke:#181818;stroke-width:1;" x1="270.9946" x2="430.4648" y1="367.7715" y2="367.7715"/><text fill="#000000" font-family="sans-serif" font-size="13" lengthAdjust="spacing" textLength="47.1504" x="277.9946" y="363.0293">padded</text></g><g class="message" data-participant-1="preprocess" data-participant-2="loader"><polygon fill="#181818" points="39.7686,393.082,29.7686,397.082,39.7686,401.082,35.7686,397.082" style="stroke:#181818;stroke-width:1;"/><line style="stroke:#181818;stroke-width:1;" x1="33.7686" x2="435.4648" y1="397.082" y2="397.082"/><text fill="#000000" font-family="sans-serif" font-size="13" lengthAdjust="spacing" textLength="47.1504" x="45.7686" y="392.3398">padded</text></g><rect fill="#EEEEEE" height="3" style="stroke:#EEEEEE;stroke-width:1;" width="1752.6299" x="0" y="425.7373"/><line style="stroke:#000000;stroke-width:1;" x1="0" x2="1752.6299" y1="425.7373" y2="425.7373"/><line style="stroke:#000000;stroke-width:1;" x1="0" x2="1752.6299" y1="428.7373" y2="428.7373"/><rect fill="#EEEEEE" height="23.3105" style="stroke:#000000;stroke-width:2;" width="126.4498" x="813.0901" y="415.082"/><text fill="#000000" font-family="sans-serif" font-size="13" font-weight="bold" lengthAdjust="spacing" textLength="108.1651" x="819.0901" y="431.6504">&#54617;&#49845; &#44284;&#51221;(&#45800;&#51068; &#51020;&#51221;)</text><g class="message" data-participant-1="loader" data-participant-2="model_builder"><polygon fill="#181818" points="577.4624,450.3926,587.4624,454.3926,577.4624,458.3926,581.4624,454.3926" style="stroke:#181818;stroke-width:1;"/><line style="stroke:#181818;stroke-width:1;" x1="28.7686" x2="583.4624" y1="454.3926" y2="454.3926"/></g><g class="message" data-participant-1="model_builder" data-participant-2="loader"><polygon fill="#181818" points="39.7686,479.7031,29.7686,483.7031,39.7686,487.7031,35.7686,483.7031" style="stroke:#181818;stroke-width:1;"/><line style="stroke:#181818;stroke-width:1;" x1="33.7686" x2="588.4624" y1="483.7031" y2="483.7031"/><text fill="#000000" font-family="sans-serif" font-size="13" lengthAdjust="spacing" textLength="39.3047" x="45.7686" y="478.9609">model</text></g><g class="message" data-participant-1="loader" data-participant-2="model_fit"><polygon fill="#181818" points="697.644,509.0137,707.644,513.0137,697.644,517.0137,701.644,513.0137" style="stroke:#181818;stroke-width:1;"/><line style="stroke:#181818;stroke-width:1;" x1="28.7686" x2="703.644" y1="513.0137" y2="513.0137"/><text fill="#000000" font-family="sans-serif" font-size="13" lengthAdjust="spacing" textLength="325.5396" x="35.7686" y="508.2715">x_train, y_train, epochs, batch_size, x_valid, y_valid</text></g><g class="message" data-participant-1="model_fit" data-participant-2="loader"><polygon fill="#181818" points="39.7686,538.3242,29.7686,542.3242,39.7686,546.3242,35.7686,542.3242" style="stroke:#181818;stroke-width:1;"/><line style="stroke:#181818;stroke-width:1;" x1="33.7686" x2="708.644" y1="542.3242" y2="542.3242"/><text fill="#000000" font-family="sans-serif" font-size="13" lengthAdjust="spacing" textLength="74.9531" x="45.7686" y="537.582">model_each</text></g><rect fill="#EEEEEE" height="3" style="stroke:#EEEEEE;stroke-width:1;" width="1752.6299" x="0" y="570.9795"/><line style="stroke:#000000;stroke-width:1;" x1="0" x2="1752.6299" y1="570.9795" y2="570.9795"/><line style="stroke:#000000;stroke-width:1;" x1="0" x2="1752.6299" y1="573.9795" y2="573.9795"/><rect fill="#EEEEEE" height="23.3105" style="stroke:#000000;stroke-width:2;" width="126.4498" x="813.0901" y="560.3242"/><text fill="#000000" font-family="sans-serif" font-size="13" font-weight="bold" lengthAdjust="spacing" textLength="108.1651" x="819.0901" y="576.8926">&#54617;&#49845; &#44284;&#51221;(&#45796;&#51473; &#51020;&#51221;)</text><g class="message" data-participant-1="loader" data-participant-2="model_builder"><polygon fill="#181818" points="577.4624,595.6348,587.4624,599.6348,577.4624,603.6348,581.4624,599.6348" style="stroke:#181818;stroke-width:1;"/><line style="stroke:#181818;stroke-width:1;" x1="28.7686" x2="583.4624" y1="599.6348" y2="599.6348"/></g><g class="message" data-participant-1="model_builder" data-participant-2="loader"><polygon fill="#181818" points="39.7686,624.9453,29.7686,628.9453,39.7686,632.9453,35.7686,628.9453" style="stroke:#181818;stroke-width:1;"/><line style="stroke:#181818;stroke-width:1;" x1="33.7686" x2="588.4624" y1="628.9453" y2="628.9453"/><text fill="#000000" font-family="sans-serif" font-size="13" lengthAdjust="spacing" textLength="39.3047" x="45.7686" y="624.2031">model</text></g><g class="message" data-participant-1="loader" data-participant-2="model_fit"><polygon fill="#181818" points="697.644,654.2559,707.644,658.2559,697.644,662.2559,701.644,658.2559" style="stroke:#181818;stroke-width:1;"/><line style="stroke:#181818;stroke-width:1;" x1="28.7686" x2="703.644" y1="658.2559" y2="658.2559"/><text fill="#000000" font-family="sans-serif" font-size="13" lengthAdjust="spacing" textLength="325.5396" x="35.7686" y="653.5137">x_train, y_train, epochs, batch_size, x_valid, y_valid</text></g><g class="message" data-participant-1="model_fit" data-participant-2="loader"><polygon fill="#181818" points="39.7686,683.5664,29.7686,687.5664,39.7686,691.5664,35.7686,687.5664" style="stroke:#181818;stroke-width:1;"/><line style="stroke:#181818;stroke-width:1;" x1="33.7686" x2="708.644" y1="687.5664" y2="687.5664"/><text fill="#000000" font-family="sans-serif" font-size="13" lengthAdjust="spacing" textLength="82.875" x="45.7686" y="682.8242">model_whole</text></g><rect fill="#EEEEEE" height="3" style="stroke:#EEEEEE;stroke-width:1;" width="1752.6299" x="0" y="716.2217"/><line style="stroke:#000000;stroke-width:1;" x1="0" x2="1752.6299" y1="716.2217" y2="716.2217"/><line style="stroke:#000000;stroke-width:1;" x1="0" x2="1752.6299" y1="719.2217" y2="719.2217"/><rect fill="#EEEEEE" height="23.3105" style="stroke:#000000;stroke-width:2;" width="67.5493" x="842.5403" y="705.5664"/><text fill="#000000" font-family="sans-serif" font-size="13" font-weight="bold" lengthAdjust="spacing" textLength="49.2647" x="848.5403" y="722.1348">&#50696;&#52769; &#44284;&#51221;</text><g class="message" data-participant-1="loader" data-participant-2="ptk_whole_pred"><polygon fill="#181818" points="1147.25,756.1875,1157.25,760.1875,1147.25,764.1875,1151.25,760.1875" style="stroke:#181818;stroke-width:1;"/><line style="stroke:#181818;stroke-width:1;" x1="28.7686" x2="1153.25" y1="760.1875" y2="760.1875"/><text fill="#000000" font-family="sans-serif" font-size="13" lengthAdjust="spacing" textLength="47.8296" x="35.7686" y="755.4453">filepath</text></g><g class="message" data-participant-1="ptk_whole_pred" data-participant-2="pred_preprocess"><polygon fill="#181818" points="840.7813,785.498,830.7813,789.498,840.7813,793.498,836.7813,789.498" style="stroke:#181818;stroke-width:1;"/><line style="stroke:#181818;stroke-width:1;" x1="834.7813" x2="1158.25" y1="789.498" y2="789.498"/><text fill="#000000" font-family="sans-serif" font-size="13" lengthAdjust="spacing" textLength="47.8296" x="846.7813" y="784.7559">filepath</text></g><g class="message" data-participant-1="pred_preprocess" data-participant-2="ptk_whole_pred"><polygon fill="#181818" points="1147.25,814.8086,1157.25,818.8086,1147.25,822.8086,1151.25,818.8086" style="stroke:#181818;stroke-width:1;"/><line style="stroke:#181818;stroke-width:1;" x1="829.7813" x2="1153.25" y1="818.8086" y2="818.8086"/><text fill="#000000" font-family="sans-serif" font-size="13" lengthAdjust="spacing" textLength="69.0181" x="836.7813" y="814.0664">ptk_x_data</text></g><g class="message" data-participant-1="ptk_whole_pred" data-participant-2="model_pred"><polygon fill="#181818" points="969.583,844.1191,959.583,848.1191,969.583,852.1191,965.583,848.1191" style="stroke:#181818;stroke-width:1;"/><line style="stroke:#181818;stroke-width:1;" x1="963.583" x2="1158.25" y1="848.1191" y2="848.1191"/><text fill="#000000" font-family="sans-serif" font-size="13" lengthAdjust="spacing" textLength="33.9663" x="975.583" y="843.377">keras</text></g><g class="message" data-participant-1="model_pred" data-participant-2="ptk_whole_pred"><polygon fill="#181818" points="1147.25,873.4297,1157.25,877.4297,1147.25,881.4297,1151.25,877.4297" style="stroke:#181818;stroke-width:1;"/><line style="stroke:#181818;stroke-width:1;" x1="958.583" x2="1153.25" y1="877.4297" y2="877.4297"/><text fill="#000000" font-family="sans-serif" font-size="13" lengthAdjust="spacing" textLength="82.875" x="965.583" y="872.6875">model_whole</text></g><g class="message" data-participant-1="ptk_whole_pred" data-participant-2="model_whole"><polygon fill="#181818" points="1285.5742,902.7402,1295.5742,906.7402,1285.5742,910.7402,1289.5742,906.7402" style="stroke:#181818;stroke-width:1;"/><line style="stroke:#181818;stroke-width:1;" x1="1159.25" x2="1291.5742" y1="906.7402" y2="906.7402"/><text fill="#000000" font-family="sans-serif" font-size="13" lengthAdjust="spacing" textLength="69.0181" x="1166.25" y="901.998">ptk_x_data</text></g><g class="message" data-participant-1="model_whole" data-participant-2="ptk_whole_pred"><polygon fill="#181818" points="1170.25,932.0508,1160.25,936.0508,1170.25,940.0508,1166.25,936.0508" style="stroke:#181818;stroke-width:1;"/><line style="stroke:#181818;stroke-width:1;" x1="1164.25" x2="1296.5742" y1="936.0508" y2="936.0508"/><text fill="#000000" font-family="sans-serif" font-size="13" lengthAdjust="spacing" textLength="28.9263" x="1176.25" y="931.3086">pred</text></g><g class="message" data-participant-1="ptk_whole_pred" data-participant-2="loader"><polygon fill="#181818" points="39.7686,961.3613,29.7686,965.3613,39.7686,969.3613,35.7686,965.3613" style="stroke:#181818;stroke-width:1;"/><line style="stroke:#181818;stroke-width:1;" x1="33.7686" x2="1158.25" y1="965.3613" y2="965.3613"/><text fill="#000000" font-family="sans-serif" font-size="13" lengthAdjust="spacing" textLength="28.9263" x="45.7686" y="960.6191">pred</text></g><g class="message" data-participant-1="loader" data-participant-2="ptk_each_pred"><polygon fill="#181818" points="1049.2578,990.6719,1059.2578,994.6719,1049.2578,998.6719,1053.2578,994.6719" style="stroke:#181818;stroke-width:1;"/><line style="stroke:#181818;stroke-width:1;" x1="28.7686" x2="1055.2578" y1="994.6719" y2="994.6719"/><text fill="#000000" font-family="sans-serif" font-size="13" lengthAdjust="spacing" textLength="47.8296" x="35.7686" y="989.9297">filepath</text></g><g class="message" data-participant-1="ptk_each_pred" data-participant-2="pred_preprocess"><polygon fill="#181818" points="840.7813,1019.9824,830.7813,1023.9824,840.7813,1027.9824,836.7813,1023.9824" style="stroke:#181818;stroke-width:1;"/><line style="stroke:#181818;stroke-width:1;" x1="834.7813" x2="1060.2578" y1="1023.9824" y2="1023.9824"/><text fill="#000000" font-family="sans-serif" font-size="13" lengthAdjust="spacing" textLength="47.8296" x="846.7813" y="1019.2402">filepath</text></g><g class="message" data-participant-1="pred_preprocess" data-participant-2="ptk_each_pred"><polygon fill="#181818" points="1049.2578,1049.293,1059.2578,1053.293,1049.2578,1057.293,1053.2578,1053.293" style="stroke:#181818;stroke-width:1;"/><line style="stroke:#181818;stroke-width:1;" x1="829.7813" x2="1055.2578" y1="1053.293" y2="1053.293"/><text fill="#000000" font-family="sans-serif" font-size="13" lengthAdjust="spacing" textLength="69.0181" x="836.7813" y="1048.5508">ptk_x_data</text></g><g class="message" data-participant-1="ptk_each_pred" data-participant-2="model_pred"><polygon fill="#181818" points="969.583,1078.6035,959.583,1082.6035,969.583,1086.6035,965.583,1082.6035" style="stroke:#181818;stroke-width:1;"/><line style="stroke:#181818;stroke-width:1;" x1="963.583" x2="1060.2578" y1="1082.6035" y2="1082.6035"/><text fill="#000000" font-family="sans-serif" font-size="13" lengthAdjust="spacing" textLength="33.9663" x="975.583" y="1077.8613">keras</text></g><g class="message" data-participant-1="model_pred" data-participant-2="ptk_each_pred"><polygon fill="#181818" points="1049.2578,1107.9141,1059.2578,1111.9141,1049.2578,1115.9141,1053.2578,1111.9141" style="stroke:#181818;stroke-width:1;"/><line style="stroke:#181818;stroke-width:1;" x1="958.583" x2="1055.2578" y1="1111.9141" y2="1111.9141"/><text fill="#000000" font-family="sans-serif" font-size="13" lengthAdjust="spacing" textLength="74.9531" x="965.583" y="1107.1719">model_each</text></g><g class="message" data-participant-1="ptk_each_pred" data-participant-2="model_each"><polygon fill="#181818" points="1455.6992,1137.2246,1465.6992,1141.2246,1455.6992,1145.2246,1459.6992,1141.2246" style="stroke:#181818;stroke-width:1;"/><line style="stroke:#181818;stroke-width:1;" x1="1061.2578" x2="1461.6992" y1="1141.2246" y2="1141.2246"/><text fill="#000000" font-family="sans-serif" font-size="13" lengthAdjust="spacing" textLength="69.0181" x="1068.2578" y="1136.4824">ptk_x_data</text></g><g class="message" data-participant-1="model_each" data-participant-2="ptk_each_pred"><polygon fill="#181818" points="1072.2578,1166.5352,1062.2578,1170.5352,1072.2578,1174.5352,1068.2578,1170.5352" style="stroke:#181818;stroke-width:1;"/><line style="stroke:#181818;stroke-width:1;" x1="1066.2578" x2="1466.6992" y1="1170.5352" y2="1170.5352"/><text fill="#000000" font-family="sans-serif" font-size="13" lengthAdjust="spacing" textLength="28.9263" x="1078.2578" y="1165.793">pred</text></g><g class="message" data-participant-1="ptk_each_pred" data-participant-2="loader"><polygon fill="#181818" points="39.7686,1195.8457,29.7686,1199.8457,39.7686,1203.8457,35.7686,1199.8457" style="stroke:#181818;stroke-width:1;"/><line style="stroke:#181818;stroke-width:1;" x1="33.7686" x2="1060.2578" y1="1199.8457" y2="1199.8457"/><text fill="#000000" font-family="sans-serif" font-size="13" lengthAdjust="spacing" textLength="28.9263" x="45.7686" y="1195.1035">pred</text></g><!--SRC=[rLHDYzim4BtxLmnxIi0DbDuCwHyfHIYMaeZrrzhoRhQd7d8eRVVGGo0zB6mXb1vw2DqkR6b-qThv3zN8JY8v2fJUUjFCU_D6UXf92XbnsDvijlDr_Ni5rNfPtJzi5ykdnxNdPJIN8XGPJIISnLGaPq0BY5BAU6w3j6GY9LdEipmDUL7q-fhQfCSYuaJcD2d6QHvJATB4hhwYboIZZ8baqXQsaKsR4KObFUvoIDZyKIaYHZ9vJkAKyQXbwpNHMFSK6XgCXRIeAhPfgXzpxiBCsYNecMCNMDFHLhlbD9pkHDlm1FDgcaRSeEhOmMswQNI0g0Zj8sh4LOAzdHK8k0h2D8u74owRIuyAkmfHpniEeRfPrxS_rT11lNfR_Ph3SEWrSmNFNXhaGDKMoaqYhpFkmqN92nmV4Z8ZI58VqbpLagICmJjKerQZ6W3EM4H7Q3eLUV4getBgwyHht51zDwz_BAklt-7fVbFVBUmD7Qwr4SB3-L3aFYGavf6wx3q1wIV7FW1iwvt4kxsKDc6ZvpxaQPcm7YjpJVDVz7s8U39HMdRdzjsOkyHLJ6T4yRqMxhR1D8wC9RKphWNHfEtYS_t-eNMeLttuLjzkeBxzgAA-wmPtZyoAJ6qD79Mf1nV03AqHYG_NkmNFqd1Q-32YKZs8GhnHXvkHIne9XYozyFOAHssQaNKTOrMlFlq_nsZUgfxPvRlwyOjxOAtF800S1JrwDj0EWlblcLmRSUbYt7pB3kN37nV0ESzfuHqoBZ7hBpgXfdDMNoD_B0e1DB_XaTn-l17kEBV_SJl6xVF_v9kXsh7DqlqRrmmfypjsIs7AuHYcZ_HClomfswu_]--></g></svg>