<svg xmlns="http://www.w3.org/2000/svg" xmlns:xlink="http://www.w3.org/1999/xlink" contentStyleType="text/css" data-diagram-type="SEQUENCE" height="1151px" preserveAspectRatio="none" style="width:1557px;height:1151px;background:#FFFFFF;" version="1.1" viewBox="0 0 1557 1151" width="1557px" zoomAndPan="magnify"><title>&#54140;&#53552;&#52964; &#51020;&#49457; &#49888;&#54840; &#52376;&#47532; &#49884;&#53248;&#49828; &#45796;&#51060;&#50612;&#44536;&#47016;</title><defs/><g><text fill="#000000" font-family="sans-serif" font-size="14" font-weight="bold" lengthAdjust="spacing" textLength="228.9413" x="660.3438" y="28.5352">&#54140;&#53552;&#52964; &#51020;&#49457; &#49888;&#54840; &#52376;&#47532; &#49884;&#53248;&#49828; &#45796;&#51060;&#50612;&#44536;&#47016;</text><g><title>main</title><rect fill="#000000" fill-opacity="0.00000" height="1041.9375" width="8" x="24.7686" y="73.9766"/><line style="stroke:#181818;stroke-width:0.5;stroke-dasharray:5,5;" x1="28" x2="28" y1="73.9766" y2="1115.9141"/></g><g><title>audio_preprocess..</title><rect fill="#000000" fill-opacity="0.00000" height="1041.9375" width="8" x="129.8906" y="73.9766"/><line style="stroke:#181818;stroke-width:0.5;stroke-dasharray:5,5;" x1="133.5371" x2="133.5371" y1="73.9766" y2="1115.9141"/></g><g><title>wav_padding..</title><rect fill="#000000" fill-opacity="0.00000" height="1041.9375" width="8" x="266.9946" y="73.9766"/><line style="stroke:#181818;stroke-width:0.5;stroke-dasharray:5,5;" x1="270.2441" x2="270.2441" y1="73.9766" y2="1115.9141"/></g><g><title>x_data_preprocess..</title><rect fill="#000000" fill-opacity="0.00000" height="1041.9375" width="8" x="432.4648" y="73.9766"/><line style="stroke:#181818;stroke-width:0.5;stroke-dasharray:5,5;" x1="435.502" x2="435.502" y1="73.9766" y2="1115.9141"/></g><g><title>build_ptk_model..</title><rect fill="#000000" fill-opacity="0.00000" height="1041.9375" width="8" x="585.4624" y="73.9766"/><line style="stroke:#181818;stroke-width:0.5;stroke-dasharray:5,5;" x1="589.4277" x2="589.4277" y1="73.9766" y2="1115.9141"/></g><g><title>model.fit..</title><rect fill="#000000" fill-opacity="0.00000" height="1041.9375" width="8" x="705.644" y="73.9766"/><line style="stroke:#181818;stroke-width:0.5;stroke-dasharray:5,5;" x1="709.4971" x2="709.4971" y1="73.9766" y2="1115.9141"/></g><g><title>pred_preprocess..</title><rect fill="#000000" fill-opacity="0.00000" height="1041.9375" width="8" x="825.7813" y="73.9766"/><line style="stroke:#181818;stroke-width:0.5;stroke-dasharray:5,5;" x1="828.791" x2="828.791" y1="73.9766" y2="1115.9141"/></g><g><title>load_model..</title><rect fill="#000000" fill-opacity="0.00000" height="1041.9375" width="8" x="954.583" y="73.9766"/><line style="stroke:#181818;stroke-width:0.5;stroke-dasharray:5,5;" x1="957.7715" x2="957.7715" y1="73.9766" y2="1115.9141"/></g><g><title>ptk_each..</title><rect fill="#000000" fill-opacity="0.00000" height="1041.9375" width="8" x="1057.2578" y="73.9766"/><line style="stroke:#181818;stroke-width:0.5;stroke-dasharray:5,5;" x1="1060.3945" x2="1060.3945" y1="73.9766" y2="1115.9141"/></g><g><title>ptk_whole..</title><rect fill="#000000" fill-opacity="0.00000" height="1041.9375" width="8" x="1155.25" y="73.9766"/><line style="stroke:#181818;stroke-width:0.5;stroke-dasharray:5,5;" x1="1159.1211" x2="1159.1211" y1="73.9766" y2="1115.9141"/></g><g><title>model_whole.predict..</title><rect fill="#000000" fill-opacity="0.00000" height="1041.9375" width="8" x="1293.5742" y="73.9766"/><line style="stroke:#181818;stroke-width:0.5;stroke-dasharray:5,5;" x1="1297.3789" x2="1297.3789" y1="73.9766" y2="1115.9141"/></g><g><title>model_each.predict..</title><rect fill="#000000" fill-opacity="0.00000" height="1041.9375" width="8" x="1463.6992" y="73.9766"/><line style="stroke:#181818;stroke-width:0.5;stroke-dasharray:5,5;" x1="1466.7695" x2="1466.7695" y1="73.9766" y2="1115.9141"/></g><g class="participant participant-head" data-participant="loader"><rect fill="#E2E2F0" height="30.4883" rx="2.5" ry="2.5" style="stroke:#181818;stroke-width:0.5;" width="47.5371" x="5" y="42.4883"/><text fill="#000000" font-family="sans-serif" font-size="14" lengthAdjust="spacing" textLength="33.5371" x="12" y="63.0234">main</text></g><g class="participant participant-tail" data-participant="loader"><rect fill="#E2E2F0" height="30.4883" rx="2.5" ry="2.5" style="stroke:#181818;stroke-width:0.5;" width="47.5371" x="5" y="1114.9141"/><text fill="#000000" font-family="sans-serif" font-size="14" lengthAdjust="spacing" textLength="33.5371" x="12" y="1135.4492">main</text></g><g class="participant participant-head" data-participant="audio_file_transformation"><rect fill="#E2E2F0" height="30.4883" rx="2.5" ry="2.5" style="stroke:#181818;stroke-width:0.5;" width="142.707" x="62.5371" y="42.4883"/><text fill="#000000" font-family="sans-serif" font-size="14" lengthAdjust="spacing" textLength="128.707" x="69.5371" y="63.0234">audio_preprocess()</text></g><g class="participant participant-tail" data-participant="audio_file_transformation"><rect fill="#E2E2F0" height="30.4883" rx="2.5" ry="2.5" style="stroke:#181818;stroke-width:0.5;" width="142.707" x="62.5371" y="1114.9141"/><text fill="#000000" font-family="sans-serif" font-size="14" lengthAdjust="spacing" textLength="128.707" x="69.5371" y="1135.4492">audio_preprocess()</text></g><g class="participant participant-head" data-participant="padding"><rect fill="#E2E2F0" height="30.4883" rx="2.5" ry="2.5" style="stroke:#181818;stroke-width:0.5;" width="111.501" x="215.2441" y="42.4883"/><text fill="#000000" font-family="sans-serif" font-size="14" lengthAdjust="spacing" textLength="97.501" x="222.2441" y="63.0234">wav_padding()</text></g><g class="participant participant-tail" data-participant="padding"><rect fill="#E2E2F0" height="30.4883" rx="2.5" ry="2.5" style="stroke:#181818;stroke-width:0.5;" width="111.501" x="215.2441" y="1114.9141"/><text fill="#000000" font-family="sans-serif" font-size="14" lengthAdjust="spacing" textLength="97.501" x="222.2441" y="1135.4492">wav_padding()</text></g><g class="participant participant-head" data-participant="preprocess"><rect fill="#E2E2F0" height="30.4883" rx="2.5" ry="2.5" style="stroke:#181818;stroke-width:0.5;" width="149.9258" x="361.502" y="42.4883"/><text fill="#000000" font-family="sans-serif" font-size="14" lengthAdjust="spacing" textLength="135.9258" x="368.502" y="63.0234">x_data_preprocess()</text></g><g class="participant participant-tail" data-participant="preprocess"><rect fill="#E2E2F0" height="30.4883" rx="2.5" ry="2.5" style="stroke:#181818;stroke-width:0.5;" width="149.9258" x="361.502" y="1114.9141"/><text fill="#000000" font-family="sans-serif" font-size="14" lengthAdjust="spacing" textLength="135.9258" x="368.502" y="1135.4492">x_data_preprocess()</text></g><g class="participant participant-head" data-participant="model_builder"><rect fill="#E2E2F0" height="30.4883" rx="2.5" ry="2.5" style="stroke:#181818;stroke-width:0.5;" width="136.0693" x="521.4277" y="42.4883"/><text fill="#000000" font-family="sans-serif" font-size="14" lengthAdjust="spacing" textLength="122.0693" x="528.4277" y="63.0234">build_ptk_model()</text></g><g class="participant participant-tail" data-participant="model_builder"><rect fill="#E2E2F0" height="30.4883" rx="2.5" ry="2.5" style="stroke:#181818;stroke-width:0.5;" width="136.0693" x="521.4277" y="1114.9141"/><text fill="#000000" font-family="sans-serif" font-size="14" lengthAdjust="spacing" textLength="122.0693" x="528.4277" y="1135.4492">build_ptk_model()</text></g><g class="participant participant-head" data-participant="model_fit"><rect fill="#E2E2F0" height="30.4883" rx="2.5" ry="2.5" style="stroke:#181818;stroke-width:0.5;" width="84.2939" x="667.4971" y="42.4883"/><text fill="#000000" font-family="sans-serif" font-size="14" lengthAdjust="spacing" textLength="70.2939" x="674.4971" y="63.0234">model.fit()</text></g><g class="participant participant-tail" data-participant="model_fit"><rect fill="#E2E2F0" height="30.4883" rx="2.5" ry="2.5" style="stroke:#181818;stroke-width:0.5;" width="84.2939" x="667.4971" y="1114.9141"/><text fill="#000000" font-family="sans-serif" font-size="14" lengthAdjust="spacing" textLength="70.2939" x="674.4971" y="1135.4492">model.fit()</text></g><g class="participant participant-head" data-participant="pred_preprocess"><rect fill="#E2E2F0" height="30.4883" rx="2.5" ry="2.5" style="stroke:#181818;stroke-width:0.5;" width="135.9805" x="761.791" y="42.4883"/><text fill="#000000" font-family="sans-serif" font-size="14" lengthAdjust="spacing" textLength="121.9805" x="768.791" y="63.0234">pred_preprocess()</text></g><g class="participant participant-tail" data-participant="pred_preprocess"><rect fill="#E2E2F0" height="30.4883" rx="2.5" ry="2.5" style="stroke:#181818;stroke-width:0.5;" width="135.9805" x="761.791" y="1114.9141"/><text fill="#000000" font-family="sans-serif" font-size="14" lengthAdjust="spacing" textLength="121.9805" x="768.791" y="1135.4492">pred_preprocess()</text></g><g class="participant participant-head" data-participant="model_pred"><rect fill="#E2E2F0" height="30.4883" rx="2.5" ry="2.5" style="stroke:#181818;stroke-width:0.5;" width="101.623" x="907.7715" y="42.4883"/><text fill="#000000" font-family="sans-serif" font-size="14" lengthAdjust="spacing" textLength="87.623" x="914.7715" y="63.0234">load_model()</text></g><g class="participant participant-tail" data-participant="model_pred"><rect fill="#E2E2F0" height="30.4883" rx="2.5" ry="2.5" style="stroke:#181818;stroke-width:0.5;" width="101.623" x="907.7715" y="1114.9141"/><text fill="#000000" font-family="sans-serif" font-size="14" lengthAdjust="spacing" textLength="87.623" x="914.7715" y="1135.4492">load_model()</text></g><g class="participant participant-head" data-participant="ptk_each_pred"><rect fill="#E2E2F0" height="30.4883" rx="2.5" ry="2.5" style="stroke:#181818;stroke-width:0.5;" width="83.7266" x="1019.3945" y="42.4883"/><text fill="#000000" font-family="sans-serif" font-size="14" lengthAdjust="spacing" textLength="69.7266" x="1026.3945" y="63.0234">ptk_each()</text></g><g class="participant participant-tail" data-participant="ptk_each_pred"><rect fill="#E2E2F0" height="30.4883" rx="2.5" ry="2.5" style="stroke:#181818;stroke-width:0.5;" width="83.7266" x="1019.3945" y="1114.9141"/><text fill="#000000" font-family="sans-serif" font-size="14" lengthAdjust="spacing" textLength="69.7266" x="1026.3945" y="1135.4492">ptk_each()</text></g><g class="participant participant-head" data-participant="ptk_whole_pred"><rect fill="#E2E2F0" height="30.4883" rx="2.5" ry="2.5" style="stroke:#181818;stroke-width:0.5;" width="92.2578" x="1113.1211" y="42.4883"/><text fill="#000000" font-family="sans-serif" font-size="14" lengthAdjust="spacing" textLength="78.2578" x="1120.1211" y="63.0234">ptk_whole()</text></g><g class="participant participant-tail" data-participant="ptk_whole_pred"><rect fill="#E2E2F0" height="30.4883" rx="2.5" ry="2.5" style="stroke:#181818;stroke-width:0.5;" width="92.2578" x="1113.1211" y="1114.9141"/><text fill="#000000" font-family="sans-serif" font-size="14" lengthAdjust="spacing" textLength="78.2578" x="1120.1211" y="1135.4492">ptk_whole()</text></g><g class="participant participant-head" data-participant="model_whole"><rect fill="#E2E2F0" height="30.4883" rx="2.5" ry="2.5" style="stroke:#181818;stroke-width:0.5;" width="164.3906" x="1215.3789" y="42.4883"/><text fill="#000000" font-family="sans-serif" font-size="14" lengthAdjust="spacing" textLength="150.3906" x="1222.3789" y="63.0234">model_whole.predict()</text></g><g class="participant participant-tail" data-participant="model_whole"><rect fill="#E2E2F0" height="30.4883" rx="2.5" ry="2.5" style="stroke:#181818;stroke-width:0.5;" width="164.3906" x="1215.3789" y="1114.9141"/><text fill="#000000" font-family="sans-serif" font-size="14" lengthAdjust="spacing" textLength="150.3906" x="1222.3789" y="1135.4492">model_whole.predict()</text></g><g class="participant participant-head" data-participant="model_each"><rect fill="#E2E2F0" height="30.4883" rx="2.5" ry="2.5" style="stroke:#181818;stroke-width:0.5;" width="155.8594" x="1389.7695" y="42.4883"/><text fill="#000000" font-family="sans-serif" font-size="14" lengthAdjust="spacing" textLength="141.8594" x="1396.7695" y="63.0234">model_each.predict()</text></g><g class="participant participant-tail" data-participant="model_each"><rect fill="#E2E2F0" height="30.4883" rx="2.5" ry="2.5" style="stroke:#181818;stroke-width:0.5;" width="155.8594" x="1389.7695" y="1114.9141"/><text fill="#000000" font-family="sans-serif" font-size="14" lengthAdjust="spacing" textLength="141.8594" x="1396.7695" y="1135.4492">model_each.predict()</text></g><rect fill="#EEEEEE" height="3" style="stroke:#EEEEEE;stroke-width:1;" width="1550.6289" x="0" y="104.6318"/><line style="stroke:#000000;stroke-width:1;" x1="0" x2="1550.6289" y1="104.6318" y2="104.6318"/><line style="stroke:#000000;stroke-width:1;" x1="0" x2="1550.6289" y1="107.6318" y2="107.6318"/><rect fill="#EEEEEE" height="23.3105" style="stroke:#000000;stroke-width:2;" width="78.7943" x="735.9173" y="93.9766"/><text fill="#000000" font-family="sans-serif" font-size="13" font-weight="bold" lengthAdjust="spacing" textLength="60.5097" x="741.9173" y="110.5449">&#51204;&#52376;&#47532; &#44284;&#51221;</text><g class="message" data-participant-1="loader" data-participant-2="preprocess"><polygon fill="#181818" points="424.4648,144.5977,434.4648,148.5977,424.4648,152.5977,428.4648,148.5977" style="stroke:#181818;stroke-width:1;"/><line style="stroke:#181818;stroke-width:1;" x1="28.7686" x2="430.4648" y1="148.5977" y2="148.5977"/><text fill="#000000" font-family="sans-serif" font-size="13" lengthAdjust="spacing" textLength="122.6938" x="35.7686" y="143.8555">wav_file, sr, n_mels</text></g><g class="message" data-participant-1="preprocess" data-participant-2="audio_file_transformation"><polygon fill="#181818" points="144.8906,173.9082,134.8906,177.9082,144.8906,181.9082,140.8906,177.9082" style="stroke:#181818;stroke-width:1;"/><line style="stroke:#181818;stroke-width:1;" x1="138.8906" x2="435.4648" y1="177.9082" y2="177.9082"/><text fill="#000000" font-family="sans-serif" font-size="13" lengthAdjust="spacing" textLength="28.2915" x="150.8906" y="173.166">path</text></g><g class="message" data-participant-1="audio_file_transformation" data-participant-2="preprocess"><polygon fill="#181818" points="424.4648,203.2188,434.4648,207.2188,424.4648,211.2188,428.4648,207.2188" style="stroke:#181818;stroke-width:1;"/><line style="stroke:#181818;stroke-width:1;" x1="133.8906" x2="430.4648" y1="207.2188" y2="207.2188"/><text fill="#000000" font-family="sans-serif" font-size="13" lengthAdjust="spacing" textLength="222.6123" x="140.8906" y="202.4766">mel_db1, round(duration,3), length</text></g><g class="message" data-participant-1="preprocess" data-participant-2="padding"><polygon fill="#181818" points="281.9946,232.5293,271.9946,236.5293,281.9946,240.5293,277.9946,236.5293" style="stroke:#181818;stroke-width:1;"/><line style="stroke:#181818;stroke-width:1;" x1="275.9946" x2="435.4648" y1="236.5293" y2="236.5293"/><text fill="#000000" font-family="sans-serif" font-size="13" lengthAdjust="spacing" textLength="141.4702" x="287.9946" y="231.7871">wav_file, wav_max_len</text></g><g class="message" data-participant-1="padding" data-participant-2="preprocess"><polygon fill="#181818" points="424.4648,261.8398,434.4648,265.8398,424.4648,269.8398,428.4648,265.8398" style="stroke:#181818;stroke-width:1;"/><line style="stroke:#181818;stroke-width:1;" x1="270.9946" x2="430.4648" y1="265.8398" y2="265.8398"/><text fill="#000000" font-family="sans-serif" font-size="13" lengthAdjust="spacing" textLength="47.1504" x="277.9946" y="261.0977">padded</text></g><g class="message" data-participant-1="preprocess" data-participant-2="loader"><polygon fill="#181818" points="39.7686,291.1504,29.7686,295.1504,39.7686,299.1504,35.7686,295.1504" style="stroke:#181818;stroke-width:1;"/><line style="stroke:#181818;stroke-width:1;" x1="33.7686" x2="435.4648" y1="295.1504" y2="295.1504"/><text fill="#000000" font-family="sans-serif" font-size="13" lengthAdjust="spacing" textLength="47.1504" x="45.7686" y="290.4082">padded</text></g><rect fill="#EEEEEE" height="3" style="stroke:#EEEEEE;stroke-width:1;" width="1550.6289" x="0" y="323.8057"/><line style="stroke:#000000;stroke-width:1;" x1="0" x2="1550.6289" y1="323.8057" y2="323.8057"/><line style="stroke:#000000;stroke-width:1;" x1="0" x2="1550.6289" y1="326.8057" y2="326.8057"/><rect fill="#EEEEEE" height="23.3105" style="stroke:#000000;stroke-width:2;" width="126.4498" x="712.0896" y="313.1504"/><text fill="#000000" font-family="sans-serif" font-size="13" font-weight="bold" lengthAdjust="spacing" textLength="108.1651" x="718.0896" y="329.7188">&#54617;&#49845; &#44284;&#51221;(&#45800;&#51068; &#51020;&#51221;)</text><g class="message" data-participant-1="loader" data-participant-2="model_builder"><polygon fill="#181818" points="577.4624,348.4609,587.4624,352.4609,577.4624,356.4609,581.4624,352.4609" style="stroke:#181818;stroke-width:1;"/><line style="stroke:#181818;stroke-width:1;" x1="28.7686" x2="583.4624" y1="352.4609" y2="352.4609"/></g><g class="message" data-participant-1="model_builder" data-participant-2="loader"><polygon fill="#181818" points="39.7686,377.7715,29.7686,381.7715,39.7686,385.7715,35.7686,381.7715" style="stroke:#181818;stroke-width:1;"/><line style="stroke:#181818;stroke-width:1;" x1="33.7686" x2="588.4624" y1="381.7715" y2="381.7715"/><text fill="#000000" font-family="sans-serif" font-size="13" lengthAdjust="spacing" textLength="39.3047" x="45.7686" y="377.0293">model</text></g><g class="message" data-participant-1="loader" data-participant-2="model_fit"><polygon fill="#181818" points="697.644,407.082,707.644,411.082,697.644,415.082,701.644,411.082" style="stroke:#181818;stroke-width:1;"/><line style="stroke:#181818;stroke-width:1;" x1="28.7686" x2="703.644" y1="411.082" y2="411.082"/><text fill="#000000" font-family="sans-serif" font-size="13" lengthAdjust="spacing" textLength="325.5396" x="35.7686" y="406.3398">x_train, y_train, epochs, batch_size, x_valid, y_valid</text></g><g class="message" data-participant-1="model_fit" data-participant-2="loader"><polygon fill="#181818" points="39.7686,436.3926,29.7686,440.3926,39.7686,444.3926,35.7686,440.3926" style="stroke:#181818;stroke-width:1;"/><line style="stroke:#181818;stroke-width:1;" x1="33.7686" x2="708.644" y1="440.3926" y2="440.3926"/><text fill="#000000" font-family="sans-serif" font-size="13" lengthAdjust="spacing" textLength="74.9531" x="45.7686" y="435.6504">model_each</text></g><rect fill="#EEEEEE" height="3" style="stroke:#EEEEEE;stroke-width:1;" width="1550.6289" x="0" y="469.0479"/><line style="stroke:#000000;stroke-width:1;" x1="0" x2="1550.6289" y1="469.0479" y2="469.0479"/><line style="stroke:#000000;stroke-width:1;" x1="0" x2="1550.6289" y1="472.0479" y2="472.0479"/><rect fill="#EEEEEE" height="23.3105" style="stroke:#000000;stroke-width:2;" width="126.4498" x="712.0896" y="458.3926"/><text fill="#000000" font-family="sans-serif" font-size="13" font-weight="bold" lengthAdjust="spacing" textLength="108.1651" x="718.0896" y="474.9609">&#54617;&#49845; &#44284;&#51221;(&#45796;&#51473; &#51020;&#51221;)</text><g class="message" data-participant-1="loader" data-participant-2="model_builder"><polygon fill="#181818" points="577.4624,493.7031,587.4624,497.7031,577.4624,501.7031,581.4624,497.7031" style="stroke:#181818;stroke-width:1;"/><line style="stroke:#181818;stroke-width:1;" x1="28.7686" x2="583.4624" y1="497.7031" y2="497.7031"/></g><g class="message" data-participant-1="model_builder" data-participant-2="loader"><polygon fill="#181818" points="39.7686,523.0137,29.7686,527.0137,39.7686,531.0137,35.7686,527.0137" style="stroke:#181818;stroke-width:1;"/><line style="stroke:#181818;stroke-width:1;" x1="33.7686" x2="588.4624" y1="527.0137" y2="527.0137"/><text fill="#000000" font-family="sans-serif" font-size="13" lengthAdjust="spacing" textLength="39.3047" x="45.7686" y="522.2715">model</text></g><g class="message" data-participant-1="loader" data-participant-2="model_fit"><polygon fill="#181818" points="697.644,552.3242,707.644,556.3242,697.644,560.3242,701.644,556.3242" style="stroke:#181818;stroke-width:1;"/><line style="stroke:#181818;stroke-width:1;" x1="28.7686" x2="703.644" y1="556.3242" y2="556.3242"/><text fill="#000000" font-family="sans-serif" font-size="13" lengthAdjust="spacing" textLength="325.5396" x="35.7686" y="551.582">x_train, y_train, epochs, batch_size, x_valid, y_valid</text></g><g class="message" data-participant-1="model_fit" data-participant-2="loader"><polygon fill="#181818" points="39.7686,581.6348,29.7686,585.6348,39.7686,589.6348,35.7686,585.6348" style="stroke:#181818;stroke-width:1;"/><line style="stroke:#181818;stroke-width:1;" x1="33.7686" x2="708.644" y1="585.6348" y2="585.6348"/><text fill="#000000" font-family="sans-serif" font-size="13" lengthAdjust="spacing" textLength="82.875" x="45.7686" y="580.8926">model_whole</text></g><rect fill="#EEEEEE" height="3" style="stroke:#EEEEEE;stroke-width:1;" width="1550.6289" x="0" y="614.29"/><line style="stroke:#000000;stroke-width:1;" x1="0" x2="1550.6289" y1="614.29" y2="614.29"/><line style="stroke:#000000;stroke-width:1;" x1="0" x2="1550.6289" y1="617.29" y2="617.29"/><rect fill="#EEEEEE" height="23.3105" style="stroke:#000000;stroke-width:2;" width="67.5493" x="741.5398" y="603.6348"/><text fill="#000000" font-family="sans-serif" font-size="13" font-weight="bold" lengthAdjust="spacing" textLength="49.2647" x="747.5398" y="620.2031">&#50696;&#52769; &#44284;&#51221;</text><g class="message" data-participant-1="loader" data-participant-2="ptk_whole_pred"><polygon fill="#181818" points="1147.25,654.2559,1157.25,658.2559,1147.25,662.2559,1151.25,658.2559" style="stroke:#181818;stroke-width:1;"/><line style="stroke:#181818;stroke-width:1;" x1="28.7686" x2="1153.25" y1="658.2559" y2="658.2559"/><text fill="#000000" font-family="sans-serif" font-size="13" lengthAdjust="spacing" textLength="47.8296" x="35.7686" y="653.5137">filepath</text></g><g class="message" data-participant-1="ptk_whole_pred" data-participant-2="pred_preprocess"><polygon fill="#181818" points="840.7813,683.5664,830.7813,687.5664,840.7813,691.5664,836.7813,687.5664" style="stroke:#181818;stroke-width:1;"/><line style="stroke:#181818;stroke-width:1;" x1="834.7813" x2="1158.25" y1="687.5664" y2="687.5664"/><text fill="#000000" font-family="sans-serif" font-size="13" lengthAdjust="spacing" textLength="47.8296" x="846.7813" y="682.8242">filepath</text></g><g class="message" data-participant-1="pred_preprocess" data-participant-2="ptk_whole_pred"><polygon fill="#181818" points="1147.25,712.877,1157.25,716.877,1147.25,720.877,1151.25,716.877" style="stroke:#181818;stroke-width:1;"/><line style="stroke:#181818;stroke-width:1;" x1="829.7813" x2="1153.25" y1="716.877" y2="716.877"/><text fill="#000000" font-family="sans-serif" font-size="13" lengthAdjust="spacing" textLength="69.0181" x="836.7813" y="712.1348">ptk_x_data</text></g><g class="message" data-participant-1="ptk_whole_pred" data-participant-2="model_pred"><polygon fill="#181818" points="969.583,742.1875,959.583,746.1875,969.583,750.1875,965.583,746.1875" style="stroke:#181818;stroke-width:1;"/><line style="stroke:#181818;stroke-width:1;" x1="963.583" x2="1158.25" y1="746.1875" y2="746.1875"/><text fill="#000000" font-family="sans-serif" font-size="13" lengthAdjust="spacing" textLength="33.9663" x="975.583" y="741.4453">keras</text></g><g class="message" data-participant-1="model_pred" data-participant-2="ptk_whole_pred"><polygon fill="#181818" points="1147.25,771.498,1157.25,775.498,1147.25,779.498,1151.25,775.498" style="stroke:#181818;stroke-width:1;"/><line style="stroke:#181818;stroke-width:1;" x1="958.583" x2="1153.25" y1="775.498" y2="775.498"/><text fill="#000000" font-family="sans-serif" font-size="13" lengthAdjust="spacing" textLength="82.875" x="965.583" y="770.7559">model_whole</text></g><g class="message" data-participant-1="ptk_whole_pred" data-participant-2="model_whole"><polygon fill="#181818" points="1285.5742,800.8086,1295.5742,804.8086,1285.5742,808.8086,1289.5742,804.8086" style="stroke:#181818;stroke-width:1;"/><line style="stroke:#181818;stroke-width:1;" x1="1159.25" x2="1291.5742" y1="804.8086" y2="804.8086"/><text fill="#000000" font-family="sans-serif" font-size="13" lengthAdjust="spacing" textLength="69.0181" x="1166.25" y="800.0664">ptk_x_data</text></g><g class="message" data-participant-1="model_whole" data-participant-2="ptk_whole_pred"><polygon fill="#181818" points="1170.25,830.1191,1160.25,834.1191,1170.25,838.1191,1166.25,834.1191" style="stroke:#181818;stroke-width:1;"/><line style="stroke:#181818;stroke-width:1;" x1="1164.25" x2="1296.5742" y1="834.1191" y2="834.1191"/><text fill="#000000" font-family="sans-serif" font-size="13" lengthAdjust="spacing" textLength="28.9263" x="1176.25" y="829.377">pred</text></g><g class="message" data-participant-1="ptk_whole_pred" data-participant-2="loader"><polygon fill="#181818" points="39.7686,859.4297,29.7686,863.4297,39.7686,867.4297,35.7686,863.4297" style="stroke:#181818;stroke-width:1;"/><line style="stroke:#181818;stroke-width:1;" x1="33.7686" x2="1158.25" y1="863.4297" y2="863.4297"/><text fill="#000000" font-family="sans-serif" font-size="13" lengthAdjust="spacing" textLength="28.9263" x="45.7686" y="858.6875">pred</text></g><g class="message" data-participant-1="loader" data-participant-2="ptk_each_pred"><polygon fill="#181818" points="1049.2578,888.7402,1059.2578,892.7402,1049.2578,896.7402,1053.2578,892.7402" style="stroke:#181818;stroke-width:1;"/><line style="stroke:#181818;stroke-width:1;" x1="28.7686" x2="1055.2578" y1="892.7402" y2="892.7402"/><text fill="#000000" font-family="sans-serif" font-size="13" lengthAdjust="spacing" textLength="47.8296" x="35.7686" y="887.998">filepath</text></g><g class="message" data-participant-1="ptk_each_pred" data-participant-2="pred_preprocess"><polygon fill="#181818" points="840.7813,918.0508,830.7813,922.0508,840.7813,926.0508,836.7813,922.0508" style="stroke:#181818;stroke-width:1;"/><line style="stroke:#181818;stroke-width:1;" x1="834.7813" x2="1060.2578" y1="922.0508" y2="922.0508"/><text fill="#000000" font-family="sans-serif" font-size="13" lengthAdjust="spacing" textLength="47.8296" x="846.7813" y="917.3086">filepath</text></g><g class="message" data-participant-1="pred_preprocess" data-participant-2="ptk_each_pred"><polygon fill="#181818" points="1049.2578,947.3613,1059.2578,951.3613,1049.2578,955.3613,1053.2578,951.3613" style="stroke:#181818;stroke-width:1;"/><line style="stroke:#181818;stroke-width:1;" x1="829.7813" x2="1055.2578" y1="951.3613" y2="951.3613"/><text fill="#000000" font-family="sans-serif" font-size="13" lengthAdjust="spacing" textLength="69.0181" x="836.7813" y="946.6191">ptk_x_data</text></g><g class="message" data-participant-1="ptk_each_pred" data-participant-2="model_pred"><polygon fill="#181818" points="969.583,976.6719,959.583,980.6719,969.583,984.6719,965.583,980.6719" style="stroke:#181818;stroke-width:1;"/><line style="stroke:#181818;stroke-width:1;" x1="963.583" x2="1060.2578" y1="980.6719" y2="980.6719"/><text fill="#000000" font-family="sans-serif" font-size="13" lengthAdjust="spacing" textLength="33.9663" x="975.583" y="975.9297">keras</text></g><g class="message" data-participant-1="model_pred" data-participant-2="ptk_each_pred"><polygon fill="#181818" points="1049.2578,1005.9824,1059.2578,1009.9824,1049.2578,1013.9824,1053.2578,1009.9824" style="stroke:#181818;stroke-width:1;"/><line style="stroke:#181818;stroke-width:1;" x1="958.583" x2="1055.2578" y1="1009.9824" y2="1009.9824"/><text fill="#000000" font-family="sans-serif" font-size="13" lengthAdjust="spacing" textLength="74.9531" x="965.583" y="1005.2402">model_each</text></g><g class="message" data-participant-1="ptk_each_pred" data-participant-2="model_each"><polygon fill="#181818" points="1455.6992,1035.293,1465.6992,1039.293,1455.6992,1043.293,1459.6992,1039.293" style="stroke:#181818;stroke-width:1;"/><line style="stroke:#181818;stroke-width:1;" x1="1061.2578" x2="1461.6992" y1="1039.293" y2="1039.293"/><text fill="#000000" font-family="sans-serif" font-size="13" lengthAdjust="spacing" textLength="69.0181" x="1068.2578" y="1034.5508">ptk_x_data</text></g><g class="message" data-participant-1="model_each" data-participant-2="ptk_each_pred"><polygon fill="#181818" points="1072.2578,1064.6035,1062.2578,1068.6035,1072.2578,1072.6035,1068.2578,1068.6035" style="stroke:#181818;stroke-width:1;"/><line style="stroke:#181818;stroke-width:1;" x1="1066.2578" x2="1466.6992" y1="1068.6035" y2="1068.6035"/><text fill="#000000" font-family="sans-serif" font-size="13" lengthAdjust="spacing" textLength="28.9263" x="1078.2578" y="1063.8613">pred</text></g><g class="message" data-participant-1="ptk_each_pred" data-participant-2="loader"><polygon fill="#181818" points="39.7686,1093.9141,29.7686,1097.9141,39.7686,1101.9141,35.7686,1097.9141" style="stroke:#181818;stroke-width:1;"/><line style="stroke:#181818;stroke-width:1;" x1="33.7686" x2="1060.2578" y1="1097.9141" y2="1097.9141"/><text fill="#000000" font-family="sans-serif" font-size="13" lengthAdjust="spacing" textLength="28.9263" x="45.7686" y="1093.1719">pred</text></g><!--SRC=[rLHDYzim4BtxLmnxIi1TABqPqhyYb4ZPY7LiOokxQKzxoA5isaCFAIaq9OLGzj13FxOqqFoYZV8VAibUHsChK7ghJvgPDs-avoT98MCEXpUxm-oh-hq1jNgjPjz0pTU7vHRKz-N-ynSTVJZStAZR3Upd6xMwL-_k7tvjzn_lWY2ZkHG3aT54mjcOYkGCQ05nIXdFSP5Ec4X9blCiJmUyA3fT2otJGn5p8dEQ5CCq7rCfqWHtNzChab76H79HDLOHXaq9evAsfnmJ6D-VY9YHJ5wISSfuNA7jcjXQynIsT3uK4a5rZ65w7lFkmitY5gEPPnUcfy6jTylfOFH8MeKdaDUZDEOErCOUR3dDLizDLGpm4Mt5rs9cUpjC8T1VhmTgFQkizF1ZfzOBwFM2qYFmvBdpSo8m_zcO8OGY3o4XOnvhdMg0WPzqJAGz8KV1oNfpbkOchFyqX3oT9Ap39hc5XS-w8SGykT1SU79bENUNPZMcKwBnGLLkZZ5fepQYAazV5ur8XyLxTVkpKgYpdz-frSxUn_MYYmN3_aIHosqBhJRjrGYcHXgHXF3YSS6pT30gGkXJgRrKY9VwS5DoHMF13CekWfgXDQRwsvvZRDJcxVzpZDBcrhFBLshxoMzOT8yYC5QmriE5oWZkbNUnkEBZDN7vedcOZyz319SyfqLmpFZ8q3K-mMPpQAwJRvD21EL3qgAhxMtA3UNgnweXN9t_9zqSrePiYFTlL7Ee76-Ve38fZs8ctU9pzK9KMAu_]--></g></svg>